<svg width="234" height="59" viewBox="0 0 234 59" fill="none" xmlns="http://www.w3.org/2000/svg">
<path d="M18.5698 11.6204C17.6832 11.9873 16.1546 18.8663 16.1546 18.8663C17.6221 17.093 18.5393 16.4815 19.9762 16.4815C20.2514 16.4815 22.8195 16.4815 21.4743 20.5784C20.924 22.2293 19.7316 23.7274 18.4475 25.0115C18.2947 25.1949 17.8667 25.1644 17.7138 25.0421C17.4386 24.828 16.7966 24.2777 17.2552 23.7886C17.7138 23.33 18.2641 23.4828 18.5393 23.0854C18.7839 22.6879 19.1202 21.9236 19.3342 21.1898C19.8845 19.172 20.0985 17.8879 19.273 17.8879C17.1023 17.8879 14.2284 24.7975 14.2284 24.7975C14.0756 24.8892 12.3635 24.9503 12.3023 24.7975C15.9405 12.5987 15.91 12.8433 16.2768 12.2013C15.0539 12.5682 13.4335 12.7516 11.9354 12.7516C11.5991 12.7516 11.2323 12.9045 11.11 13.2713L8.2055 22.2599C7.71632 23.8191 7.83862 23.758 8.81696 23.8497H9.30613C9.30613 23.8497 9.15327 24.7363 9.0004 24.8586C9.0004 24.8586 7.10486 24.7975 6.52397 24.7975C5.94307 24.7975 4.68957 24.7975 3.68065 24.8586C3.6195 24.7669 3.80294 24.0026 3.89466 23.8803H4.44498C5.48447 23.7274 5.54562 23.8191 6.06536 22.2599L8.87811 12.5682C8.57237 12.5682 8.0832 12.5376 7.7469 12.5376C5.20931 12.5376 1.47937 12.9045 1.05135 14.9223C0.745613 16.4204 2.02969 16.3287 2.64116 16.3287C3.13033 16.3287 3.92523 16.2064 3.92523 17.2459C3.92523 18.0102 3.49721 18.1019 2.91632 18.1019C1.20421 18.1019 -0.141013 16.9096 0.0118537 15.1363C0.25644 12.4459 3.55836 10.6726 8.93926 10.8866C10.6819 10.9478 15.6042 11.4981 17.6526 10.642C18.0501 10.4586 18.3253 10 18.9061 10C19.2119 10 19.7316 10.1834 19.6705 10.642C19.6399 11.0701 19.059 11.4064 18.6004 11.5898L18.5698 11.6204Z" fill="black"/>
<path d="M29.7899 19.5692C28.995 19.6915 26.3657 20.3335 25.3568 20.5781C24.8065 22.3208 25.1122 23.666 26.5186 23.666C27.4052 23.666 27.9555 23.2074 28.6281 22.443C28.781 22.443 29.1479 22.6876 29.1784 22.8711C28.0167 24.522 26.3046 25.1029 25.2039 25.1029C23.7058 25.1029 22.2077 23.7577 23.1249 21.1284C24.3784 17.5513 26.702 16.4813 28.4753 16.4507C29.2396 16.4507 29.8205 16.7564 30.0956 17.0927C30.3708 17.4902 30.3097 18.4379 30.1874 18.866C30.1262 19.1106 29.9733 19.5386 29.8511 19.5692H29.7899ZM28.7504 18.7437C28.9644 18.0711 29.0561 17.215 27.8638 17.429C26.916 17.6125 25.9071 18.6214 25.7848 19.294C25.7848 19.3246 25.7848 19.4163 25.9071 19.3857L28.7504 18.7437Z" fill="black"/>
<path d="M36.8327 56.147H35.6097C35.5792 54.1291 35.5486 50.9801 35.5486 44.7737C35.5486 39.1176 35.5792 34.7151 35.6097 33.431C35.6403 32.4832 35.9766 32.0552 36.7409 31.7495V31.5049C35.6709 31.5966 34.0199 31.6272 33.0416 31.6272C31.9715 31.6272 30.3511 31.5966 29.2811 31.5049V31.7495C30.0454 32.1163 30.3511 32.4832 30.3817 33.431C30.4123 34.7151 30.4428 38.5367 30.4428 44.7737C30.4428 51.0106 30.4123 54.8323 30.3817 56.1164C30.3511 57.0947 30.0454 57.431 29.2505 57.7979V58.0425C30.3511 57.9508 31.9715 57.9202 34.9371 57.9202H45.3015C45.7906 56.4833 46.5855 54.4349 47.1359 53.1813L46.9219 52.9368C44.262 55.1686 40.8072 56.147 36.8021 56.147H36.8327Z" fill="black"/>
<path d="M56.7976 56.1467H55.6664C55.6358 54.8932 55.6052 50.7658 55.6052 45.2931C61.8116 45.3849 63.2486 45.7212 63.6154 47.8613H63.86C63.7377 46.6689 63.7072 45.8129 63.7072 44.3759C63.7072 43.0001 63.7377 42.1441 63.86 40.8906H63.6154C63.218 42.9084 61.8116 43.367 55.6052 43.4893C55.6052 39.0868 55.6358 35.0205 55.6664 33.4307C56.3084 33.4001 56.9199 33.4001 57.6842 33.4001C60.9556 33.4001 63.8294 33.9199 66.6422 36.6103L66.9173 36.4269C66.2753 35.0205 65.6638 33.0027 65.3581 31.6574H53.4345C52.0282 31.6574 50.4078 31.6269 49.3377 31.5352V31.7797C50.102 32.1466 50.4078 32.5135 50.4383 33.4613C50.4689 34.7454 50.4995 38.567 50.4995 44.804C50.4995 51.0409 50.4689 54.8626 50.4383 56.1467C50.4078 57.125 50.102 57.4613 49.3071 57.8282V58.0728C50.4078 57.9811 52.0282 57.9505 54.1377 57.9505H66.6116C67.1008 56.5135 67.8651 54.4651 68.446 53.2116L68.1709 52.967C65.4498 55.1989 60.9861 56.1772 56.767 56.1772L56.7976 56.1467Z" fill="black"/>
<path d="M91.3756 31.5964C90.703 31.5964 89.6941 31.5658 88.9603 31.4741L88.8992 31.7187C89.6329 32.0856 90.0304 32.4525 90.1527 33.6143C90.3055 35.9378 90.489 39.362 90.5196 44.7735C90.5196 46.5773 90.5501 48.5952 90.5807 50.399L76.1195 31.5658C75.2023 31.5964 74.1017 31.5964 73.1539 31.5964C72.2062 31.5964 70.9221 31.5658 69.6686 31.4741L69.6074 31.7187C70.7692 32.3913 71.5335 33.4308 71.5641 35.5404C71.5947 36.855 71.6253 39.9429 71.6253 44.7735C71.6253 50.9493 71.5947 53.7009 71.4112 56.2079C71.3807 57.1251 71.0444 57.4003 70.2495 57.7977V58.0423C71.1667 57.9506 72.2673 57.92 72.8482 57.92C73.4291 57.92 74.4686 57.9506 75.2329 58.0423V57.7977C74.5603 57.4308 74.1934 57.064 74.0711 55.9633C73.9183 53.7621 73.7042 50.185 73.6737 44.7735C73.6431 41.1964 73.5819 38.6283 73.5208 36.3658L90.5501 58.2869H92.5985C92.568 55.6882 92.5068 50.9493 92.5068 44.7735C92.5068 38.5977 92.5985 35.8155 92.7208 33.5837C92.782 32.4219 93.1183 32.0856 93.9132 31.7493L93.852 31.5047C92.996 31.5964 92.0176 31.627 91.345 31.627L91.3756 31.5964Z" fill="black"/>
<path d="M96.6648 31.5962C96.4507 32.8803 95.9004 34.9287 95.3501 36.4573L95.5947 36.7019C98.0711 34.4701 101.281 33.3389 103.574 33.3389H103.88V44.7733C103.88 50.9797 103.849 54.8319 103.788 56.116C103.758 57.0943 103.421 57.4306 102.596 57.7975L102.657 58.0421C103.727 57.9504 105.317 57.9198 106.356 57.9198C107.396 57.9198 109.016 57.9504 110.056 58.0421L110.148 57.7975C109.383 57.4918 109.016 57.0637 108.955 56.116C108.925 54.8319 108.863 50.9797 108.863 44.7733V33.3389H109.2C111.493 33.3389 114.672 34.4089 117.149 36.6714L117.363 36.4573C116.843 34.8981 116.293 32.8803 116.079 31.5962H96.6648Z" fill="black"/>
<path d="M139.62 31.5964C138.947 31.5964 137.938 31.5658 137.205 31.4741L137.144 31.7187C137.877 32.0856 138.275 32.4525 138.397 33.6143C138.55 35.9378 138.764 41.0741 138.764 47.1276C138.764 52.4168 136.868 55.7187 132.007 55.7187C127.421 55.7187 125.189 53.1506 125.189 47.892C125.189 39.576 125.22 34.6843 125.251 33.4308C125.281 32.483 125.617 32.055 126.382 31.7493V31.5047C125.281 31.5964 123.661 31.627 122.652 31.627C121.582 31.627 119.992 31.5964 118.922 31.5047V31.7493C119.656 32.1162 119.992 32.483 120.023 33.4308C120.053 34.7149 120.084 39.6066 120.084 47.678C120.084 55.7493 125.281 58.6232 131.09 58.6232C136.899 58.6232 140.721 54.8015 140.721 47.3722C140.721 38.8423 140.843 35.8461 140.935 33.6143C140.965 32.4525 141.302 32.1162 142.127 31.7799L142.066 31.5353C141.21 31.627 140.231 31.6576 139.559 31.6576L139.62 31.5964Z" fill="black"/>
<path d="M200.002 56.1467H198.841C198.81 54.8932 198.779 50.7658 198.779 45.2931C204.955 45.3849 206.423 45.7212 206.79 47.8613H207.065C206.942 46.6689 206.912 45.8129 206.912 44.3759C206.912 43.0001 206.942 42.1441 207.065 40.8906H206.79C206.392 42.9084 204.986 43.367 198.779 43.4893C198.779 39.0868 198.779 35.0205 198.841 33.4307C199.452 33.4001 200.094 33.4001 200.858 33.4001C204.13 33.4001 207.034 33.9199 209.816 36.6103L210.061 36.4269C209.419 35.0205 208.807 33.0027 208.502 31.6574H196.578C195.172 31.6574 193.551 31.6269 192.481 31.5352V31.7797C193.246 32.1466 193.551 32.5135 193.582 33.4613C193.612 34.7454 193.643 38.567 193.643 44.804C193.643 51.0409 193.612 54.8626 193.582 56.1467C193.551 57.125 193.246 57.4613 192.451 57.8282V58.0728C193.551 57.9811 195.172 57.9505 197.281 57.9505H209.755C210.244 56.5135 211.009 54.4651 211.59 53.2116L211.345 52.967C208.624 55.1989 204.13 56.1772 199.941 56.1772L200.002 56.1467Z" fill="black"/>
<path d="M225.837 33.3389C228.13 33.3389 231.309 34.4089 233.786 36.6714L234 36.4573C233.48 34.8981 232.93 32.8803 232.716 31.5962H213.302C213.088 32.8803 212.537 34.9287 211.957 36.4573L212.201 36.7019C214.678 34.4701 217.888 33.3389 220.181 33.3389H220.486V44.7733C220.486 50.9797 220.456 54.8319 220.395 56.116C220.364 57.0943 220.028 57.4306 219.202 57.7975L219.264 58.0421C220.334 57.9504 221.923 57.9198 222.963 57.9198C224.002 57.9198 225.623 57.9504 226.662 58.0421L226.754 57.7975C225.99 57.4918 225.623 57.0637 225.562 56.116C225.531 54.8319 225.501 50.9797 225.501 44.7733V33.3389H225.837Z" fill="black"/>
<path d="M162.031 51.6523C160.288 48.6561 158.423 46.4548 156.436 45.6905C160.319 44.9262 163.621 42.5109 163.621 38.2612C163.621 34.0115 158.484 31.4434 151.758 31.4434C149.802 31.4434 147.325 31.4739 145.246 31.5962V31.8408C145.919 31.9325 146.347 32.3606 146.377 33.4C146.408 34.6841 146.438 38.5058 146.438 44.7427C146.438 50.9797 146.408 54.8014 146.377 56.0854C146.347 57.0638 146.041 57.4001 145.246 57.767V58.0115C146.347 57.9198 147.967 57.8893 148.945 57.8893C150.016 57.8893 151.666 57.9198 152.706 58.0115V57.767C151.972 57.4612 151.636 57.0332 151.605 56.0854C151.575 54.8014 151.575 34.8676 151.605 33.2472C155.977 33.2472 158.729 35.1427 158.729 38.2612C158.729 41.6548 156.742 43.9173 153.103 43.9173H152.645C153.868 45.1402 156.161 48.5033 156.711 50.4599C157.995 54.8625 160.074 58.409 163.529 58.409C164.752 58.409 166.128 58.0115 166.953 57.2472L166.892 56.9721C165.486 57.3389 164.446 55.9326 162.031 51.6829V51.6523Z" fill="black"/>
<path d="M185.786 51.6523C184.043 48.6561 182.178 46.4548 180.191 45.6905C184.074 44.9262 187.376 42.5109 187.376 38.2612C187.376 34.0115 182.24 31.4434 175.513 31.4434C173.557 31.4434 171.08 31.4739 168.971 31.5962V31.8408C169.643 31.9325 170.071 32.3606 170.132 33.4C170.163 34.6841 170.194 38.5058 170.194 44.7427C170.194 50.9797 170.163 54.8014 170.132 56.0854C170.102 57.0638 169.796 57.4001 168.971 57.767V58.0115C170.071 57.9198 171.692 57.8893 172.67 57.8893C173.74 57.8893 175.391 57.9198 176.431 58.0115V57.767C175.697 57.4612 175.361 57.0332 175.33 56.0854C175.299 54.8014 175.299 34.8676 175.33 33.2472C179.732 33.2472 182.484 35.1427 182.484 38.2612C182.484 41.6548 180.497 43.9173 176.859 43.9173H176.4C177.623 45.1402 179.916 48.5033 180.466 50.4599C181.75 54.8625 183.829 58.409 187.284 58.409C188.507 58.409 189.913 58.0115 190.708 57.2472L190.647 56.9721C189.241 57.3389 188.201 55.9326 185.786 51.6829V51.6523Z" fill="black"/>
<path d="M21.9437 45.3238C20.9042 45.3238 19.3449 45.2932 18.1526 45.2015L18.0608 45.4461C18.8863 45.813 19.1921 46.1798 19.2532 47.1276C19.2532 48.0142 19.3144 51.0104 19.3144 53.4563C17.908 54.6486 16.4099 55.3518 14.6061 55.3518C9.56147 55.3518 5.43408 49.9404 5.43408 43.306C5.43408 36.6715 9.5309 31.2601 14.6061 31.2601C16.9602 31.2601 18.978 32.8499 19.9258 33.9811C20.8736 35.1123 22.6163 37.8028 23.4417 39.79L23.7169 39.6983C23.6558 37.8945 23.6558 35.3569 23.5946 33.5531C23.5946 33.1556 23.4723 32.7887 23.2583 32.5747C22.6163 31.8715 21.8825 31.1378 20.843 30.4346C19.7424 29.7008 17.2048 28.1416 13.8417 28.1416C4.27229 28.1416 -0.955743 37.711 0.144896 45.6295C0.572922 49.2983 2.56019 53.2117 5.58694 55.6881C8.73599 58.1646 11.9768 58.9901 15.6456 58.4703C19.3449 57.8588 22.4634 55.4741 24.2978 52.906L24.5424 52.5391V51.8359C24.5424 50.1849 24.573 48.4728 24.6341 47.097C24.6647 46.1187 25.0316 45.7212 25.7959 45.4155L25.7347 45.1709C24.573 45.2626 23.0137 45.2932 21.9437 45.2932V45.3238Z" fill="black"/>
</svg>
